<?xml version="1.0" standalone="no"?>
<!DOCTYPE svg PUBLIC "-//W3C//DTD SVG 20010904//EN"
 "http://www.w3.org/TR/2001/REC-SVG-20010904/DTD/svg10.dtd">
<svg version="1.0" xmlns="http://www.w3.org/2000/svg"
 width="512.000000pt" height="512.000000pt" viewBox="0 0 512.000000 512.000000"
 preserveAspectRatio="xMidYMid meet">

<g transform="translate(0.000000,512.000000) scale(0.100000,-0.100000)"
fill="#000000" stroke="none">
<path d="M2303 4201 c-51 -24 -91 -88 -100 -160 -5 -42 -1 -59 20 -103 31 -62
68 -88 127 -88 61 0 104 30 136 96 23 46 26 63 21 110 -13 124 -106 190 -204
145z"/>
<path d="M3170 4083 c-37 -14 -91 -80 -106 -130 -56 -191 141 -306 260 -151
59 78 55 191 -9 255 -29 29 -39 33 -81 32 -27 0 -56 -3 -64 -6z"/>
<path d="M2456 3516 c-114 -48 -176 -135 -176 -247 0 -83 32 -151 101 -213 75
-67 142 -90 264 -90 81 0 109 4 146 21 108 49 169 139 169 249 0 111 -76 216
-198 272 -46 21 -75 27 -152 29 -83 3 -102 1 -154 -21z"/>
</g>
</svg>
